<svg width="200" height="57" viewBox="0 0 200 57" fill="none" xmlns="http://www.w3.org/2000/svg">
<g id="ROBOCODE 1" clip-path="url(#clip0_707_67)">
<g id="Layer 2">
<g id="Background">
<path id="Vector" d="M21.4359 12.897C20.8642 11.2178 20.364 9.61011 19.7567 8.03812C19.7567 7.78803 19.2208 7.60939 18.8992 7.46648C18.3142 7.24368 17.7921 6.88185 17.3781 6.41222C16.964 5.9426 16.6705 5.37928 16.5228 4.77088C16.3751 4.16249 16.3777 3.52729 16.5303 2.9201C16.6829 2.31291 16.9809 1.75198 17.3987 1.2857C18.021 0.573156 18.8894 0.122014 19.8302 0.0226372C20.771 -0.0767395 21.7145 0.182987 22.4719 0.749796C23.2551 1.33524 23.7842 2.19854 23.9503 3.16212C24.1164 4.1257 23.907 5.11631 23.3651 5.93022C23.1596 6.1749 23.0299 6.47419 22.9918 6.79146C22.9537 7.10873 23.0089 7.43022 23.1508 7.71657C23.7581 9.32429 24.294 10.932 24.8657 12.5397H29.2601C29.9389 10.6462 30.6534 8.71693 31.2608 6.8234C31.2608 6.60904 31.2608 6.25176 30.9393 6.00168C30.5162 5.32748 30.3039 4.54245 30.3293 3.74693C30.3548 2.95141 30.6169 2.18156 31.0822 1.53579C31.4913 0.888565 32.0975 0.389903 32.8115 0.113311C33.5255 -0.16328 34.3095 -0.203168 35.0479 -0.000472888C35.845 0.203136 36.5531 0.663148 37.0631 1.30872C37.5731 1.9543 37.8567 2.74963 37.8703 3.57223C37.9427 4.43381 37.7002 5.29241 37.1877 5.9888C36.6753 6.68519 35.9277 7.17212 35.0836 7.3593C34.8308 7.40364 34.597 7.52259 34.4124 7.70087C34.2278 7.87914 34.1007 8.10857 34.0475 8.35966C33.5831 9.78874 33.0829 11.1821 32.5827 12.6469L35.6552 13.2543C39.4552 14.1421 42.9796 15.9482 45.9195 18.5144C48.8594 21.0806 51.1252 24.3286 52.5184 27.9738C54.5984 32.747 55.2679 38.0161 54.4476 43.1578C53.9379 46.3011 52.2036 49.1144 49.6245 50.9821C46.8263 53.0141 43.6402 54.4491 40.264 55.1979C34.2357 56.5043 28.0441 56.8898 21.9003 56.3411C18.0679 56.2084 14.2861 55.4231 10.7177 54.0189C8.95615 53.2901 7.26914 52.3927 5.68023 51.3393C4.01135 50.2553 2.6253 48.7886 1.63729 47.0611C0.64928 45.3336 0.0878376 43.3953 -0.000371173 41.4072C-0.517599 34.5037 1.37646 27.6345 5.35869 21.9717C8.89292 17.2205 14.1546 14.0507 20.0068 13.1471L21.4359 12.897ZM27.7238 45.0514C29.8081 45.0203 33.0471 44.6584 33.0471 44.6584C36.2145 44.4713 39.3405 43.8461 42.3362 42.8006C44.2601 42.1596 45.919 40.902 47.0558 39.2226C48.1926 37.5433 48.7438 35.5359 48.6241 33.5115C48.4901 29.8871 47.1154 26.4186 44.7299 23.6866C41.8012 20.551 37.8978 18.4985 33.6545 17.8631C29.2727 16.9375 24.7459 16.9375 20.364 17.8631C17.9586 18.3417 15.6667 19.2754 13.6116 20.614C11.3572 22.0838 9.51688 24.1066 8.26605 26.4894C7.01521 28.8723 6.39557 31.5358 6.46622 34.2261C6.41839 35.4595 6.66575 36.6865 7.18774 37.805C7.70973 38.9236 8.49125 39.9013 9.4673 40.6569C10.8764 41.8437 12.5199 42.7202 14.2904 43.2293C22.5077 45.0514 22.4303 45.1303 27.7238 45.0514Z" fill="white"/>
<path id="Vector_2" d="M180.422 30.474V20.8277C180.422 20.006 180.744 19.613 181.387 19.5773C182.03 19.5415 182.495 19.9703 182.495 20.8277C182.495 25.9724 182.495 31.1171 182.495 36.2261C182.421 38.1253 181.653 39.9314 180.336 41.3014C179.019 42.6714 177.244 43.5098 175.349 43.6573C173.61 43.8308 171.864 43.4147 170.39 42.4757C168.917 41.5367 167.802 40.1295 167.224 38.4802C166.647 36.831 166.641 35.0356 167.208 33.3826C167.774 31.7296 168.88 30.3151 170.347 29.3665C171.636 28.4495 173.178 27.9568 174.76 27.9568C176.341 27.9568 177.883 28.4495 179.172 29.3665C179.493 29.7237 179.851 30.0453 180.422 30.474ZM180.422 35.9045C180.437 34.7569 180.109 33.6309 179.482 32.6698C178.855 31.7086 177.956 30.9557 176.899 30.5066C175.843 30.0576 174.677 29.9327 173.55 30.1479C172.422 30.3631 171.385 30.9086 170.568 31.7152C169.751 32.5217 169.193 33.5528 168.964 34.6774C168.735 35.802 168.845 36.9694 169.281 38.0311C169.717 39.0929 170.458 40.0011 171.412 40.6403C172.365 41.2794 173.487 41.6208 174.635 41.6209C176.157 41.621 177.619 41.021 178.702 39.951C179.785 38.881 180.404 37.4271 180.422 35.9045Z" fill="white"/>
<path id="Vector_3" d="M98.9279 30.4748C99.1649 30.2456 99.4154 30.0309 99.6781 29.8317C100.989 28.7367 102.626 28.1076 104.333 28.0429C106.04 27.9783 107.72 28.4817 109.11 29.4744C110.212 30.2406 111.099 31.2775 111.684 32.4854C112.27 33.6932 112.535 35.0314 112.454 36.3713C112.373 37.7111 111.948 39.0076 111.221 40.136C110.494 41.2644 109.489 42.1869 108.303 42.8146C107.116 43.4423 105.788 43.7543 104.446 43.7204C103.105 43.6865 101.794 43.308 100.641 42.6212C99.4873 41.9345 98.5301 40.9625 97.861 39.7989C97.1919 38.6352 96.8334 37.319 96.82 35.9767C96.82 31.0107 96.82 26.0089 96.82 21.0428C96.8022 20.8169 96.8022 20.5899 96.82 20.364C96.8544 20.1432 96.9672 19.9421 97.1378 19.7977C97.3084 19.6534 97.5254 19.5754 97.7489 19.578C97.9704 19.5452 98.1961 19.5967 98.3814 19.7225C98.5666 19.8482 98.6979 20.0389 98.7492 20.2568C98.7836 20.6013 98.7836 20.9484 98.7492 21.2929C98.7492 24.0082 98.7492 26.6877 98.7492 29.403C98.8922 29.6888 98.8922 30.0103 98.9279 30.4748ZM104.608 30.0818C103.456 30.075 102.328 30.4123 101.369 31.0505C100.41 31.6887 99.6625 32.5987 99.2234 33.664C98.7843 34.7293 98.6732 35.9015 98.9043 37.0303C99.1354 38.1591 99.6982 39.1933 100.521 40.0003C101.343 40.8074 102.388 41.3506 103.521 41.5605C104.654 41.7703 105.823 41.6372 106.88 41.1782C107.937 40.7191 108.833 39.9551 109.453 38.9839C110.073 38.0127 110.389 36.8785 110.361 35.7267C110.342 34.2168 109.726 32.7757 108.649 31.7181C107.571 30.6605 106.118 30.0722 104.608 30.0818Z" fill="white"/>
<path id="Vector_4" d="M187.673 38.1203C188.063 39.0306 188.682 39.8248 189.47 40.4258C190.257 41.0268 191.186 41.4144 192.167 41.551C193.148 41.6875 194.148 41.5684 195.069 41.2052C195.991 40.842 196.803 40.2471 197.427 39.4779C197.605 39.2635 197.748 39.0135 197.927 38.7634C197.997 38.6406 198.091 38.5334 198.203 38.4483C198.316 38.3633 198.445 38.3021 198.582 38.2687C198.719 38.2352 198.862 38.2301 199.001 38.2538C199.14 38.2774 199.273 38.3292 199.392 38.4061C199.892 38.7276 199.999 39.2635 199.606 39.9066C199.113 40.8123 198.43 41.6006 197.604 42.2173C196.777 42.834 195.827 43.2645 194.819 43.4793C193.8 43.7324 192.74 43.7778 191.704 43.6129C190.667 43.448 189.674 43.0761 188.784 42.5193C187.894 41.9626 187.125 41.2325 186.523 40.3724C185.921 39.5123 185.498 38.5398 185.28 37.5129C184.859 35.7237 185.089 33.8434 185.926 32.2074C186.764 30.5715 188.155 29.2863 189.853 28.5812C191.525 27.8088 193.42 27.6692 195.188 28.1882C196.955 28.7073 198.474 29.8497 199.463 31.4036C200.321 32.7612 200.178 33.2614 198.713 33.833L188.316 37.8702L187.673 38.1203ZM197.355 32.1539C196.526 31.1098 195.355 30.391 194.049 30.1232C192.742 29.8553 191.383 30.0557 190.21 30.6891C189.229 31.1497 188.42 31.9101 187.9 32.8606C187.38 33.8111 187.175 34.9023 187.316 35.9767L197.355 32.1539Z" fill="#A4FF30"/>
<path id="Vector_5" d="M86.3528 43.6933C84.8099 43.7001 83.2995 43.2506 82.0114 42.4013C80.7234 41.552 79.7151 40.3409 79.1135 38.9201C78.5119 37.4994 78.3437 35.9325 78.6302 34.4165C78.9166 32.9004 79.6449 31.5029 80.7234 30.3997C81.802 29.2964 83.1826 28.5366 84.6918 28.2159C86.2009 27.8951 87.7712 28.0277 89.2052 28.597C90.6392 29.1662 91.8729 30.1467 92.7512 31.4152C93.6295 32.6837 94.1131 34.1836 94.1413 35.7262C94.17 36.7652 93.9896 37.7994 93.6106 38.7672C93.2316 39.7351 92.6619 40.6169 91.9353 41.3602C91.2087 42.1034 90.3401 42.693 89.3811 43.0938C88.422 43.4946 87.3922 43.6985 86.3528 43.6933ZM92.0691 35.9048C92.0692 34.3821 91.4693 32.9207 90.3993 31.8373C89.3292 30.7539 87.8754 30.1358 86.3528 30.117C85.2051 30.1029 84.0792 30.4302 83.118 31.0575C82.1569 31.6848 81.4039 32.5837 80.9549 33.64C80.5059 34.6962 80.381 35.8621 80.5962 36.9895C80.8114 38.1169 81.3569 39.1548 82.1634 39.9714C82.9699 40.788 84.001 41.3464 85.1257 41.5756C86.2503 41.8048 87.4177 41.6944 88.4794 41.2585C89.5412 40.8226 90.4493 40.0809 91.0885 39.1276C91.7277 38.1743 92.069 37.0525 92.0691 35.9048Z" fill="white"/>
<path id="Vector_6" d="M114.827 35.7267C114.841 34.1692 115.318 32.6511 116.197 31.3651C117.076 30.0791 118.316 29.0832 119.762 28.5037C121.208 27.9242 122.793 27.7873 124.317 28.1104C125.84 28.4335 127.234 29.2019 128.32 30.3182C129.406 31.4346 130.136 32.8484 130.417 34.3803C130.699 35.9123 130.518 37.4932 129.899 38.9225C129.281 40.3518 128.251 41.565 126.941 42.4081C125.632 43.2513 124.101 43.6863 122.544 43.6581C121.516 43.6441 120.502 43.4278 119.558 43.0217C118.614 42.6155 117.759 42.0274 117.043 41.2908C116.326 40.5543 115.761 39.6838 115.381 38.7291C115.001 37.7744 114.813 36.7542 114.827 35.7267ZM128.439 35.9053C128.446 34.7622 128.114 33.6425 127.486 32.6877C126.857 31.7328 125.96 30.9855 124.907 30.5399C123.854 30.0944 122.693 29.9706 121.57 30.1841C120.447 30.3976 119.412 30.939 118.597 31.7398C117.781 32.5407 117.221 33.5652 116.986 34.6841C116.752 35.803 116.854 36.9662 117.28 38.027C117.706 39.0879 118.437 39.9987 119.38 40.6448C120.323 41.2909 121.437 41.6432 122.58 41.6574C123.353 41.686 124.125 41.56 124.849 41.2869C125.574 41.0138 126.236 40.599 126.799 40.0667C127.361 39.5345 127.811 38.8955 128.124 38.1871C128.436 37.4787 128.604 36.7151 128.618 35.941L128.439 35.9053Z" fill="white"/>
<path id="Vector_7" d="M156.877 28.0809C158.426 28.1095 159.931 28.5972 161.202 29.4821C162.474 30.3669 163.454 31.6092 164.018 33.0515C164.583 34.4938 164.707 36.0712 164.374 37.5839C164.042 39.0966 163.267 40.4766 162.15 41.549C161.032 42.6215 159.622 43.3381 158.097 43.6081C156.571 43.8782 155 43.6895 153.583 43.0659C152.165 42.4424 150.964 41.4121 150.132 40.1055C149.3 38.799 148.875 37.2749 148.91 35.7264C148.966 33.6605 149.834 31.6999 151.325 30.2689C152.816 28.838 154.811 28.0519 156.877 28.0809ZM162.522 35.9051C162.522 34.7619 162.184 33.6443 161.549 32.6933C160.915 31.7423 160.013 31.0005 158.957 30.5614C157.902 30.1223 156.74 30.0056 155.618 30.226C154.497 30.4465 153.465 30.9942 152.654 31.8C151.844 32.6059 151.29 33.6338 151.062 34.7542C150.835 35.8746 150.944 37.0371 151.377 38.0953C151.81 39.1535 152.546 40.0599 153.493 40.7001C154.44 41.3404 155.556 41.6858 156.699 41.6929C158.237 41.6929 159.713 41.0843 160.804 39.9998C161.895 38.9154 162.513 37.4434 162.522 35.9051Z" fill="white"/>
<path id="Vector_8" d="M133.012 35.7267C132.945 34.2461 133.316 32.7787 134.078 31.5078C134.841 30.2369 135.961 29.219 137.299 28.5813C138.615 27.8902 140.105 27.5998 141.584 27.7458C143.063 27.8918 144.468 28.4679 145.623 29.403C145.838 29.403 146.123 29.796 146.159 30.0104C146.299 30.3786 146.299 30.7854 146.159 31.1536C146.098 31.2479 146.019 31.3287 145.925 31.3911C145.832 31.4534 145.727 31.4959 145.616 31.516C145.506 31.5361 145.392 31.5333 145.283 31.5079C145.173 31.4824 145.07 31.4348 144.98 31.368L144.158 30.7606C142.976 29.9603 141.539 29.6254 140.124 29.8204C138.71 30.0154 137.417 30.7265 136.495 31.817C135.573 32.9075 135.087 34.3003 135.129 35.7277C135.172 37.1552 135.741 38.5163 136.727 39.5495C137.703 40.5717 139.02 41.2015 140.428 41.32C141.837 41.4384 143.24 41.0374 144.373 40.1926L144.587 40.0139C145.266 39.5495 145.873 39.5495 146.266 40.0139C146.659 40.4784 146.516 41.1215 145.838 41.6574C144.695 42.6008 143.301 43.1882 141.827 43.347C140.354 43.5057 138.866 43.2288 137.549 42.5506C136.207 41.9832 135.061 41.0338 134.255 39.8206C133.448 38.6073 133.016 37.1837 133.012 35.7267Z" fill="white"/>
<path id="Vector_9" d="M67.166 38.1199C67.166 36.798 67.166 35.4761 67.166 34.1542C67.1762 32.6462 67.7438 31.1952 68.7595 30.0805C69.7753 28.9658 71.1674 28.2662 72.668 28.1163C73.4173 28.0628 74.1695 28.0628 74.9188 28.1163C75.6333 28.1163 76.0621 28.6165 75.9906 29.1881C75.9818 29.3229 75.9457 29.4545 75.8846 29.575C75.8236 29.6955 75.7387 29.8023 75.6352 29.8891C75.5317 29.9759 75.4117 30.0409 75.2825 30.0801C75.1532 30.1192 75.0173 30.1318 74.8831 30.117H73.2753C72.2014 30.1265 71.1746 30.5597 70.4185 31.3225C69.6623 32.0853 69.2381 33.1159 69.2382 34.1899C69.2382 36.7265 69.2382 39.2632 69.2382 41.7998V42.2642C69.2382 43.2289 68.8809 43.6933 68.2378 43.6933C67.5947 43.6933 67.166 43.2646 67.166 42.2285V38.1199Z" fill="white"/>
<path id="Vector_10" d="M22.1494 30.7241C22.1494 31.653 22.1494 32.5819 22.1494 33.4751C22.1494 34.1479 21.8822 34.7931 21.4065 35.2688C20.9307 35.7445 20.2855 36.0117 19.6128 36.0117C18.94 36.0117 18.2948 35.7445 17.8191 35.2688C17.3434 34.7931 17.0762 34.1479 17.0762 33.4751C17.0762 31.653 17.0762 29.9024 17.0762 27.9731C17.0762 27.3004 17.3434 26.6552 17.8191 26.1795C18.2948 25.7038 18.94 25.4365 19.6128 25.4365C20.2855 25.4365 20.9307 25.7038 21.4065 26.1795C21.8822 26.6552 22.1494 27.3004 22.1494 27.9731C22.1851 28.902 22.1494 29.7952 22.1494 30.7241Z" fill="white"/>
<path id="Vector_11" d="M37.6914 30.7241V33.6537C37.6914 34.3265 37.4242 34.9717 36.9485 35.4474C36.4728 35.9231 35.8276 36.1903 35.1548 36.1903C34.4821 36.1903 33.8369 35.9231 33.3612 35.4474C32.8855 34.9717 32.6182 34.3265 32.6182 33.6537C32.6182 31.7006 32.6182 29.7356 32.6182 27.7587C32.6085 27.4166 32.6682 27.0761 32.7936 26.7577C32.919 26.4392 33.1075 26.1494 33.3478 25.9058C33.5881 25.6621 33.8753 25.4696 34.192 25.3398C34.5087 25.21 34.8483 25.1457 35.1906 25.1507C35.876 25.1786 36.5229 25.4755 36.9911 25.977C37.4592 26.4786 37.7108 27.1444 37.6914 27.8302V30.7241Z" fill="white"/>
</g>
</g>
</g>
<defs>
<clipPath id="clip0_707_67">
<rect width="200" height="56.5202" fill="white"/>
</clipPath>
</defs>
</svg>
